<svg width="20" height="20" viewBox="0 0 20 20" fill="none" xmlns="http://www.w3.org/2000/svg">
<path fill-rule="evenodd" clip-rule="evenodd" d="M10 8.5C8.61929 8.5 7.5 7.38071 7.5 6C7.5 4.61929 8.61929 3.5 10 3.5C11.3807 3.5 12.5 4.61929 12.5 6C12.5 7.38071 11.3807 8.5 10 8.5ZM10 9.5C11.933 9.5 13.5 7.933 13.5 6C13.5 4.067 11.933 2.5 10 2.5C8.067 2.5 6.5 4.067 6.5 6C6.5 7.933 8.067 9.5 10 9.5ZM16 17H15C15 14.2386 12.7614 12 10 12C7.23858 12 5 14.2386 5 17H4C4 13.6863 6.68629 11 10 11C13.3137 11 16 13.6863 16 17Z" fill="black"/>
</svg>
