<svg width="20" height="20" viewBox="0 0 20 20" fill="none" xmlns="http://www.w3.org/2000/svg">
<path d="M10 12V14.5" stroke="black"/>
<mask id="path-3-inside-1" fill="white">
<path fill-rule="evenodd" clip-rule="evenodd" d="M6 7V5C6 3.89543 6.89543 3 8 3H12C13.1046 3 14 3.89543 14 5V7"/>
</mask>
<path d="M7 7V5H5V7H7ZM7 5C7 4.44772 7.44772 4 8 4V2C6.34315 2 5 3.34315 5 5H7ZM8 4H12V2H8V4ZM12 4C12.5523 4 13 4.44772 13 5H15C15 3.34315 13.6569 2 12 2V4ZM13 5V7H15V5H13Z" fill="black" mask="url(#path-3-inside-1)"/>
<rect x="4.5" y="7.5" width="11" height="9" rx="1.5" stroke="black"/>
<path d="M10 12.5C10.8284 12.5 11.5 11.8284 11.5 11C11.5 10.1716 10.8284 9.5 10 9.5C9.17157 9.5 8.5 10.1716 8.5 11C8.5 11.8284 9.17157 12.5 10 12.5Z" stroke="black"/>
</svg>
