<svg width="20" height="20" viewBox="0 0 20 20" fill="none" xmlns="http://www.w3.org/2000/svg">
<path fill-rule="evenodd" clip-rule="evenodd" d="M12 12.3333C12 12.4992 13.0516 13 14.5 13C15.9484 13 17 12.4992 17 12.3333V12V10.3997C16.3647 10.7702 15.4793 11 14.5 11C13.5207 11 12.6353 10.7702 12 10.3997V12V12.3333ZM14.5 10C15.9539 10 17 9.40223 17 9C17 8.59777 15.9539 8 14.5 8C13.0461 8 12 8.59777 12 9C12 9.40223 13.0461 10 14.5 10ZM18 12.3333V15V15.3333V18.3333C18 19.2538 16.433 20 14.5 20C12.567 20 11 19.2538 11 18.3333V15.3333V15V12.3333V12V9C11 7.89543 12.567 7 14.5 7C16.433 7 18 7.89543 18 9V12V12.3333ZM12 15V13.4998C12.6353 13.8085 13.5207 14 14.5 14C15.4793 14 16.3647 13.8085 17 13.4998V15V15.3333C17 15.4992 15.9484 16 14.5 16C13.0516 16 12 15.4992 12 15.3333V15ZM17 16.4998C16.3647 16.8085 15.4793 17 14.5 17C13.5207 17 12.6353 16.8085 12 16.4998V18.3333C12 18.4992 13.0516 19 14.5 19C15.9484 19 17 18.4992 17 18.3333V16.4998ZM9 15.3333C9 16.2538 7.433 17 5.5 17C3.567 17 2 16.2538 2 15.3333V12.3333V12V9C2 7.89543 3.567 7 5.5 7C7.433 7 9 7.89543 9 9V12V12.3333V15.3333ZM8 13.4998V15.3333C8 15.4992 6.94841 16 5.5 16C4.05159 16 3 15.4992 3 15.3333V13.4998C3.63526 13.8085 4.52066 14 5.5 14C6.47934 14 7.36474 13.8085 8 13.4998ZM8 12.3333V12V10.3997C7.36474 10.7702 6.47934 11 5.5 11C4.52066 11 3.63526 10.7702 3 10.3997V12V12.3333C3 12.4992 4.05159 13 5.5 13C6.94841 13 8 12.4992 8 12.3333ZM8 9C8 8.59777 6.95391 8 5.5 8C4.04609 8 3 8.59777 3 9C3 9.40223 4.04609 10 5.5 10C6.95391 10 8 9.40223 8 9Z" fill="black"/>
</svg>
